<mxfile host="app.diagrams.net" modified="2020-12-18T00:45:05.809Z" agent="5.0 (X11; Linux x86_64) AppleWebKit/537.36 (KHTML, like Gecko) Chrome/85.0.4183.102 Safari/537.36" etag="0ivQo5JlU6OHzII9qhZL" version="14.0.5" type="github">
  <diagram id="AOSA-Lj5qnrI_wFUPwJh" name="Page-1">
    <mxGraphModel dx="1298" dy="683" grid="1" gridSize="10" guides="1" tooltips="1" connect="1" arrows="1" fold="1" page="1" pageScale="1" pageWidth="850" pageHeight="1100" math="0" shadow="0">
      <root>
        <mxCell id="0" />
        <mxCell id="1" parent="0" />
        <mxCell id="73YXVmJCN1HynkoazAPh-1" value="AWS Cloud" style="points=[[0,0],[0.25,0],[0.5,0],[0.75,0],[1,0],[1,0.25],[1,0.5],[1,0.75],[1,1],[0.75,1],[0.5,1],[0.25,1],[0,1],[0,0.75],[0,0.5],[0,0.25]];outlineConnect=0;gradientColor=none;html=1;whiteSpace=wrap;fontSize=12;fontStyle=0;shape=mxgraph.aws4.group;grIcon=mxgraph.aws4.group_aws_cloud_alt;strokeColor=#232F3E;fillColor=none;verticalAlign=top;align=left;spacingLeft=30;fontColor=#232F3E;dashed=0;" vertex="1" parent="1">
          <mxGeometry x="230" width="590" height="760" as="geometry" />
        </mxCell>
        <mxCell id="73YXVmJCN1HynkoazAPh-5" value="AWS Glue" style="outlineConnect=0;fontColor=#232F3E;gradientColor=none;strokeColor=#ffffff;fillColor=#232F3E;dashed=0;verticalLabelPosition=middle;verticalAlign=bottom;align=center;html=1;whiteSpace=wrap;fontSize=10;fontStyle=1;spacing=3;shape=mxgraph.aws4.productIcon;prIcon=mxgraph.aws4.glue;" vertex="1" parent="1">
          <mxGeometry x="720" y="560" width="35" height="70" as="geometry" />
        </mxCell>
        <mxCell id="73YXVmJCN1HynkoazAPh-6" value="Amazon S3&lt;br&gt;raw data" style="outlineConnect=0;fontColor=#232F3E;gradientColor=none;strokeColor=#ffffff;fillColor=#232F3E;dashed=0;verticalLabelPosition=middle;verticalAlign=bottom;align=center;html=1;whiteSpace=wrap;fontSize=10;fontStyle=1;spacing=3;shape=mxgraph.aws4.productIcon;prIcon=mxgraph.aws4.s3;" vertex="1" parent="1">
          <mxGeometry x="280" y="50" width="60" height="88.5" as="geometry" />
        </mxCell>
        <mxCell id="73YXVmJCN1HynkoazAPh-9" value="On premises" style="points=[[0,0],[0.25,0],[0.5,0],[0.75,0],[1,0],[1,0.25],[1,0.5],[1,0.75],[1,1],[0.75,1],[0.5,1],[0.25,1],[0,1],[0,0.75],[0,0.5],[0,0.25]];outlineConnect=0;gradientColor=none;html=1;whiteSpace=wrap;fontSize=12;fontStyle=0;shape=mxgraph.aws4.group;grIcon=mxgraph.aws4.group_corporate_data_center;strokeColor=#5A6C86;fillColor=none;verticalAlign=top;align=left;spacingLeft=30;fontColor=#5A6C86;dashed=0;" vertex="1" parent="1">
          <mxGeometry x="10" y="10" width="210" height="360" as="geometry" />
        </mxCell>
        <mxCell id="73YXVmJCN1HynkoazAPh-14" value="raw data" style="pointerEvents=1;shadow=0;dashed=0;html=1;strokeColor=none;fillColor=#505050;labelPosition=center;verticalLabelPosition=bottom;verticalAlign=top;outlineConnect=0;align=center;shape=mxgraph.office.servers.file_server;" vertex="1" parent="1">
          <mxGeometry x="20" y="162" width="30" height="56" as="geometry" />
        </mxCell>
        <mxCell id="73YXVmJCN1HynkoazAPh-16" value="Amazon CloudWatch" style="outlineConnect=0;fontColor=#232F3E;gradientColor=none;strokeColor=#ffffff;fillColor=#232F3E;dashed=0;verticalLabelPosition=middle;verticalAlign=bottom;align=center;html=1;whiteSpace=wrap;fontSize=10;fontStyle=1;spacing=3;shape=mxgraph.aws4.productIcon;prIcon=mxgraph.aws4.cloudwatch;" vertex="1" parent="1">
          <mxGeometry x="425" y="454" width="40" height="68" as="geometry" />
        </mxCell>
        <mxCell id="73YXVmJCN1HynkoazAPh-17" value="AWS Lambda" style="outlineConnect=0;fontColor=#232F3E;gradientColor=none;strokeColor=#ffffff;fillColor=#232F3E;dashed=0;verticalLabelPosition=middle;verticalAlign=bottom;align=center;html=1;whiteSpace=wrap;fontSize=10;fontStyle=1;spacing=3;shape=mxgraph.aws4.productIcon;prIcon=mxgraph.aws4.lambda;" vertex="1" parent="1">
          <mxGeometry x="470" y="162" width="25" height="56" as="geometry" />
        </mxCell>
        <mxCell id="73YXVmJCN1HynkoazAPh-34" value="staging&lt;br&gt;area" style="text;html=1;strokeColor=none;fillColor=none;align=center;verticalAlign=middle;whiteSpace=wrap;rounded=0;" vertex="1" parent="1">
          <mxGeometry x="240" y="48" width="40" height="20" as="geometry" />
        </mxCell>
        <mxCell id="73YXVmJCN1HynkoazAPh-35" value="analytics&lt;br&gt;area" style="text;html=1;strokeColor=none;fillColor=none;align=center;verticalAlign=middle;whiteSpace=wrap;rounded=0;" vertex="1" parent="1">
          <mxGeometry x="290" y="380" width="40" height="20" as="geometry" />
        </mxCell>
        <mxCell id="73YXVmJCN1HynkoazAPh-36" value="Amazon SQS" style="outlineConnect=0;fontColor=#232F3E;gradientColor=none;strokeColor=#ffffff;fillColor=#232F3E;dashed=0;verticalLabelPosition=middle;verticalAlign=bottom;align=center;html=1;whiteSpace=wrap;fontSize=10;fontStyle=1;spacing=3;shape=mxgraph.aws4.productIcon;prIcon=mxgraph.aws4.sqs;" vertex="1" parent="1">
          <mxGeometry x="470" y="85" width="30" height="60" as="geometry" />
        </mxCell>
        <mxCell id="73YXVmJCN1HynkoazAPh-37" value="Amazon SQS" style="outlineConnect=0;fontColor=#232F3E;gradientColor=none;strokeColor=#ffffff;fillColor=#232F3E;dashed=0;verticalLabelPosition=middle;verticalAlign=bottom;align=center;html=1;whiteSpace=wrap;fontSize=10;fontStyle=1;spacing=3;shape=mxgraph.aws4.productIcon;prIcon=mxgraph.aws4.sqs;" vertex="1" parent="1">
          <mxGeometry x="465" y="250" width="30" height="60" as="geometry" />
        </mxCell>
        <mxCell id="73YXVmJCN1HynkoazAPh-41" value="AWS Step Functions workflow" style="points=[[0,0],[0.25,0],[0.5,0],[0.75,0],[1,0],[1,0.25],[1,0.5],[1,0.75],[1,1],[0.75,1],[0.5,1],[0.25,1],[0,1],[0,0.75],[0,0.5],[0,0.25]];outlineConnect=0;gradientColor=none;html=1;whiteSpace=wrap;fontSize=12;fontStyle=0;shape=mxgraph.aws4.group;grIcon=mxgraph.aws4.group_aws_step_functions_workflow;strokeColor=#CD2264;fillColor=none;verticalAlign=top;align=left;spacingLeft=30;fontColor=#CD2264;dashed=0;" vertex="1" parent="1">
          <mxGeometry x="510" y="15" width="140" height="225" as="geometry" />
        </mxCell>
        <mxCell id="73YXVmJCN1HynkoazAPh-42" value="AWS Lambda" style="outlineConnect=0;fontColor=#232F3E;gradientColor=none;strokeColor=#ffffff;fillColor=#232F3E;dashed=0;verticalLabelPosition=middle;verticalAlign=bottom;align=center;html=1;whiteSpace=wrap;fontSize=10;fontStyle=1;spacing=3;shape=mxgraph.aws4.productIcon;prIcon=mxgraph.aws4.lambda;" vertex="1" parent="1">
          <mxGeometry x="562.5" y="250" width="25" height="56" as="geometry" />
        </mxCell>
        <mxCell id="73YXVmJCN1HynkoazAPh-43" value="end" style="ellipse;whiteSpace=wrap;html=1;" vertex="1" parent="1">
          <mxGeometry x="550" y="47" width="50" height="30" as="geometry" />
        </mxCell>
        <mxCell id="73YXVmJCN1HynkoazAPh-44" value="start" style="ellipse;whiteSpace=wrap;html=1;" vertex="1" parent="1">
          <mxGeometry x="550" y="200" width="50" height="30" as="geometry" />
        </mxCell>
        <mxCell id="73YXVmJCN1HynkoazAPh-45" value="update" style="rounded=1;whiteSpace=wrap;html=1;" vertex="1" parent="1">
          <mxGeometry x="540" y="85" width="80" height="27" as="geometry" />
        </mxCell>
        <mxCell id="73YXVmJCN1HynkoazAPh-46" value="run lambda" style="rounded=1;whiteSpace=wrap;html=1;" vertex="1" parent="1">
          <mxGeometry x="540" y="126" width="80" height="27" as="geometry" />
        </mxCell>
        <mxCell id="73YXVmJCN1HynkoazAPh-47" value="update" style="rounded=1;whiteSpace=wrap;html=1;" vertex="1" parent="1">
          <mxGeometry x="540" y="168" width="80" height="27" as="geometry" />
        </mxCell>
        <mxCell id="73YXVmJCN1HynkoazAPh-48" style="edgeStyle=orthogonalEdgeStyle;rounded=0;orthogonalLoop=1;jettySize=auto;html=1;exitX=0.5;exitY=1;exitDx=0;exitDy=0;" edge="1" parent="1" source="73YXVmJCN1HynkoazAPh-46" target="73YXVmJCN1HynkoazAPh-46">
          <mxGeometry relative="1" as="geometry" />
        </mxCell>
        <mxCell id="73YXVmJCN1HynkoazAPh-49" value="Amazon DynamoDB" style="outlineConnect=0;fontColor=#232F3E;gradientColor=none;strokeColor=#ffffff;fillColor=#232F3E;dashed=0;verticalLabelPosition=middle;verticalAlign=bottom;align=center;html=1;whiteSpace=wrap;fontSize=10;fontStyle=1;spacing=3;shape=mxgraph.aws4.productIcon;prIcon=mxgraph.aws4.dynamodb;" vertex="1" parent="1">
          <mxGeometry x="780" y="48" width="20" height="50" as="geometry" />
        </mxCell>
        <mxCell id="73YXVmJCN1HynkoazAPh-50" value="Amazon S3 stage" style="outlineConnect=0;fontColor=#232F3E;gradientColor=none;strokeColor=#ffffff;fillColor=#232F3E;dashed=0;verticalLabelPosition=middle;verticalAlign=bottom;align=center;html=1;whiteSpace=wrap;fontSize=10;fontStyle=1;spacing=3;shape=mxgraph.aws4.productIcon;prIcon=mxgraph.aws4.s3;" vertex="1" parent="1">
          <mxGeometry x="775" y="112" width="30" height="68" as="geometry" />
        </mxCell>
        <mxCell id="73YXVmJCN1HynkoazAPh-52" value="" style="endArrow=classic;html=1;entryX=0.39;entryY=0.126;entryDx=0;entryDy=0;entryPerimeter=0;" edge="1" parent="1" target="73YXVmJCN1HynkoazAPh-1">
          <mxGeometry width="50" height="50" relative="1" as="geometry">
            <mxPoint x="355" y="96" as="sourcePoint" />
            <mxPoint x="406" y="96" as="targetPoint" />
          </mxGeometry>
        </mxCell>
        <mxCell id="73YXVmJCN1HynkoazAPh-55" value="" style="endArrow=classic;html=1;exitX=0.203;exitY=0.392;exitDx=0;exitDy=0;exitPerimeter=0;" edge="1" parent="1">
          <mxGeometry width="50" height="50" relative="1" as="geometry">
            <mxPoint x="484.5" y="219.92000000000002" as="sourcePoint" />
            <mxPoint x="484.73" y="249.99999999999994" as="targetPoint" />
          </mxGeometry>
        </mxCell>
        <mxCell id="73YXVmJCN1HynkoazAPh-56" value="" style="endArrow=classic;html=1;exitX=0.203;exitY=0.392;exitDx=0;exitDy=0;exitPerimeter=0;" edge="1" parent="1">
          <mxGeometry width="50" height="50" relative="1" as="geometry">
            <mxPoint x="484.5" y="140" as="sourcePoint" />
            <mxPoint x="485" y="160" as="targetPoint" />
          </mxGeometry>
        </mxCell>
        <mxCell id="73YXVmJCN1HynkoazAPh-59" value="" style="endArrow=classic;html=1;" edge="1" parent="1">
          <mxGeometry width="50" height="50" relative="1" as="geometry">
            <mxPoint x="500" y="264.5" as="sourcePoint" />
            <mxPoint x="551" y="264.5" as="targetPoint" />
          </mxGeometry>
        </mxCell>
        <mxCell id="73YXVmJCN1HynkoazAPh-60" value="" style="endArrow=classic;html=1;" edge="1" parent="1">
          <mxGeometry width="50" height="50" relative="1" as="geometry">
            <mxPoint x="574.5" y="250" as="sourcePoint" />
            <mxPoint x="574.5" y="220" as="targetPoint" />
          </mxGeometry>
        </mxCell>
        <mxCell id="73YXVmJCN1HynkoazAPh-61" value="" style="endArrow=classic;html=1;" edge="1" parent="1">
          <mxGeometry width="50" height="50" relative="1" as="geometry">
            <mxPoint x="579.5" y="210" as="sourcePoint" />
            <mxPoint x="579.5" y="190" as="targetPoint" />
          </mxGeometry>
        </mxCell>
        <mxCell id="73YXVmJCN1HynkoazAPh-62" value="" style="endArrow=classic;html=1;" edge="1" parent="1">
          <mxGeometry width="50" height="50" relative="1" as="geometry">
            <mxPoint x="579.5" y="123" as="sourcePoint" />
            <mxPoint x="579.5" y="103" as="targetPoint" />
          </mxGeometry>
        </mxCell>
        <mxCell id="73YXVmJCN1HynkoazAPh-63" value="" style="endArrow=classic;html=1;" edge="1" parent="1">
          <mxGeometry width="50" height="50" relative="1" as="geometry">
            <mxPoint x="579.5" y="173" as="sourcePoint" />
            <mxPoint x="579.5" y="153" as="targetPoint" />
          </mxGeometry>
        </mxCell>
        <mxCell id="73YXVmJCN1HynkoazAPh-64" value="" style="endArrow=classic;html=1;" edge="1" parent="1">
          <mxGeometry width="50" height="50" relative="1" as="geometry">
            <mxPoint x="574.5" y="88" as="sourcePoint" />
            <mxPoint x="574.5" y="68" as="targetPoint" />
          </mxGeometry>
        </mxCell>
        <mxCell id="73YXVmJCN1HynkoazAPh-65" value="" style="endArrow=classic;html=1;exitX=1;exitY=0.5;exitDx=0;exitDy=0;" edge="1" parent="1" source="73YXVmJCN1HynkoazAPh-46" target="73YXVmJCN1HynkoazAPh-50">
          <mxGeometry width="50" height="50" relative="1" as="geometry">
            <mxPoint x="680" y="190" as="sourcePoint" />
            <mxPoint x="730" y="140" as="targetPoint" />
          </mxGeometry>
        </mxCell>
        <mxCell id="73YXVmJCN1HynkoazAPh-66" value="" style="endArrow=classic;html=1;exitX=1;exitY=0.5;exitDx=0;exitDy=0;" edge="1" parent="1" source="73YXVmJCN1HynkoazAPh-47" target="73YXVmJCN1HynkoazAPh-49">
          <mxGeometry width="50" height="50" relative="1" as="geometry">
            <mxPoint x="680" y="220" as="sourcePoint" />
            <mxPoint x="730" y="170" as="targetPoint" />
            <Array as="points">
              <mxPoint x="680" y="110" />
            </Array>
          </mxGeometry>
        </mxCell>
        <mxCell id="73YXVmJCN1HynkoazAPh-67" value="" style="endArrow=classic;html=1;exitX=1;exitY=0.5;exitDx=0;exitDy=0;" edge="1" parent="1" source="73YXVmJCN1HynkoazAPh-45" target="73YXVmJCN1HynkoazAPh-49">
          <mxGeometry width="50" height="50" relative="1" as="geometry">
            <mxPoint x="640" y="130" as="sourcePoint" />
            <mxPoint x="690" y="80" as="targetPoint" />
            <Array as="points">
              <mxPoint x="680" y="110" />
            </Array>
          </mxGeometry>
        </mxCell>
        <mxCell id="73YXVmJCN1HynkoazAPh-68" value="AWS Step Functions workflow" style="points=[[0,0],[0.25,0],[0.5,0],[0.75,0],[1,0],[1,0.25],[1,0.5],[1,0.75],[1,1],[0.75,1],[0.5,1],[0.25,1],[0,1],[0,0.75],[0,0.5],[0,0.25]];outlineConnect=0;gradientColor=none;html=1;whiteSpace=wrap;fontSize=12;fontStyle=0;shape=mxgraph.aws4.group;grIcon=mxgraph.aws4.group_aws_step_functions_workflow;strokeColor=#CD2264;fillColor=none;verticalAlign=top;align=left;spacingLeft=30;fontColor=#CD2264;dashed=0;" vertex="1" parent="1">
          <mxGeometry x="490" y="440" width="200" height="280" as="geometry" />
        </mxCell>
        <mxCell id="73YXVmJCN1HynkoazAPh-69" value="Amazon S3 stage" style="outlineConnect=0;fontColor=#232F3E;gradientColor=none;strokeColor=#ffffff;fillColor=#232F3E;dashed=0;verticalLabelPosition=middle;verticalAlign=bottom;align=center;html=1;whiteSpace=wrap;fontSize=10;fontStyle=1;spacing=3;shape=mxgraph.aws4.productIcon;prIcon=mxgraph.aws4.s3;" vertex="1" parent="1">
          <mxGeometry x="330" y="460" width="30" height="70" as="geometry" />
        </mxCell>
        <mxCell id="73YXVmJCN1HynkoazAPh-70" value="" style="endArrow=none;dashed=1;html=1;dashPattern=1 3;strokeWidth=2;" edge="1" parent="1" source="73YXVmJCN1HynkoazAPh-69" target="73YXVmJCN1HynkoazAPh-50">
          <mxGeometry width="50" height="50" relative="1" as="geometry">
            <mxPoint x="470" y="380" as="sourcePoint" />
            <mxPoint x="520" y="330" as="targetPoint" />
            <Array as="points">
              <mxPoint x="345" y="320" />
              <mxPoint x="790" y="320" />
            </Array>
          </mxGeometry>
        </mxCell>
        <mxCell id="73YXVmJCN1HynkoazAPh-72" value="batch" style="edgeLabel;html=1;align=center;verticalAlign=middle;resizable=0;points=[];" vertex="1" connectable="0" parent="73YXVmJCN1HynkoazAPh-70">
          <mxGeometry x="-0.9267" y="2" relative="1" as="geometry">
            <mxPoint as="offset" />
          </mxGeometry>
        </mxCell>
        <mxCell id="73YXVmJCN1HynkoazAPh-73" value="Amazon SQS" style="outlineConnect=0;fontColor=#232F3E;gradientColor=none;strokeColor=#ffffff;fillColor=#232F3E;dashed=0;verticalLabelPosition=middle;verticalAlign=bottom;align=center;html=1;whiteSpace=wrap;fontSize=10;fontStyle=1;spacing=3;shape=mxgraph.aws4.productIcon;prIcon=mxgraph.aws4.sqs;" vertex="1" parent="1">
          <mxGeometry x="440" y="350" width="30" height="60" as="geometry" />
        </mxCell>
        <mxCell id="73YXVmJCN1HynkoazAPh-74" value="" style="endArrow=none;dashed=1;html=1;entryX=0;entryY=0.25;entryDx=0;entryDy=0;" edge="1" parent="1" source="73YXVmJCN1HynkoazAPh-73" target="73YXVmJCN1HynkoazAPh-45">
          <mxGeometry width="50" height="50" relative="1" as="geometry">
            <mxPoint x="400" y="280" as="sourcePoint" />
            <mxPoint x="450" y="230" as="targetPoint" />
            <Array as="points">
              <mxPoint x="455" y="170" />
            </Array>
          </mxGeometry>
        </mxCell>
        <mxCell id="73YXVmJCN1HynkoazAPh-75" value="AWS Lambda" style="outlineConnect=0;fontColor=#232F3E;gradientColor=none;strokeColor=#ffffff;fillColor=#232F3E;dashed=0;verticalLabelPosition=middle;verticalAlign=bottom;align=center;html=1;whiteSpace=wrap;fontSize=10;fontStyle=1;spacing=3;shape=mxgraph.aws4.productIcon;prIcon=mxgraph.aws4.lambda;" vertex="1" parent="1">
          <mxGeometry x="562.5" y="350" width="25" height="56" as="geometry" />
        </mxCell>
        <mxCell id="73YXVmJCN1HynkoazAPh-77" value="" style="endArrow=classic;startArrow=classic;html=1;" edge="1" parent="1">
          <mxGeometry width="50" height="50" relative="1" as="geometry">
            <mxPoint x="480" y="360" as="sourcePoint" />
            <mxPoint x="550" y="360" as="targetPoint" />
          </mxGeometry>
        </mxCell>
        <mxCell id="73YXVmJCN1HynkoazAPh-78" value="start" style="ellipse;whiteSpace=wrap;html=1;" vertex="1" parent="1">
          <mxGeometry x="555" y="473" width="50" height="30" as="geometry" />
        </mxCell>
        <mxCell id="73YXVmJCN1HynkoazAPh-79" value="end" style="ellipse;whiteSpace=wrap;html=1;" vertex="1" parent="1">
          <mxGeometry x="555" y="680" width="50" height="30" as="geometry" />
        </mxCell>
        <mxCell id="73YXVmJCN1HynkoazAPh-80" value="run glue job" style="rounded=1;whiteSpace=wrap;html=1;" vertex="1" parent="1">
          <mxGeometry x="520" y="516" width="140" height="27" as="geometry" />
        </mxCell>
        <mxCell id="73YXVmJCN1HynkoazAPh-81" value="run AWS glue" style="rounded=1;whiteSpace=wrap;html=1;" vertex="1" parent="1">
          <mxGeometry x="520" y="550" width="140" height="27" as="geometry" />
        </mxCell>
        <mxCell id="73YXVmJCN1HynkoazAPh-82" value="update" style="rounded=1;whiteSpace=wrap;html=1;" vertex="1" parent="1">
          <mxGeometry x="520" y="590" width="140" height="27" as="geometry" />
        </mxCell>
        <mxCell id="73YXVmJCN1HynkoazAPh-83" value="run data quality" style="rounded=1;whiteSpace=wrap;html=1;" vertex="1" parent="1">
          <mxGeometry x="520" y="630" width="140" height="27" as="geometry" />
        </mxCell>
        <mxCell id="73YXVmJCN1HynkoazAPh-84" value="" style="endArrow=classic;html=1;" edge="1" parent="1">
          <mxGeometry width="50" height="50" relative="1" as="geometry">
            <mxPoint x="365" y="473" as="sourcePoint" />
            <mxPoint x="425" y="473" as="targetPoint" />
          </mxGeometry>
        </mxCell>
        <mxCell id="73YXVmJCN1HynkoazAPh-85" value="" style="endArrow=classic;html=1;" edge="1" parent="1">
          <mxGeometry width="50" height="50" relative="1" as="geometry">
            <mxPoint x="455" y="440" as="sourcePoint" />
            <mxPoint x="454.5" y="410" as="targetPoint" />
          </mxGeometry>
        </mxCell>
        <mxCell id="73YXVmJCN1HynkoazAPh-86" value="Amazon S3 analytics" style="outlineConnect=0;fontColor=#232F3E;gradientColor=none;strokeColor=#ffffff;fillColor=#232F3E;dashed=0;verticalLabelPosition=middle;verticalAlign=bottom;align=center;html=1;whiteSpace=wrap;fontSize=10;fontStyle=1;spacing=3;shape=mxgraph.aws4.productIcon;prIcon=mxgraph.aws4.s3;" vertex="1" parent="1">
          <mxGeometry x="780" y="550" width="30" height="73" as="geometry" />
        </mxCell>
        <mxCell id="73YXVmJCN1HynkoazAPh-87" value="" style="endArrow=classic;html=1;" edge="1" parent="1">
          <mxGeometry width="50" height="50" relative="1" as="geometry">
            <mxPoint x="579.5" y="390" as="sourcePoint" />
            <mxPoint x="579.5" y="470" as="targetPoint" />
          </mxGeometry>
        </mxCell>
        <mxCell id="73YXVmJCN1HynkoazAPh-88" value="" style="endArrow=classic;html=1;" edge="1" parent="1">
          <mxGeometry width="50" height="50" relative="1" as="geometry">
            <mxPoint x="579.5" y="490" as="sourcePoint" />
            <mxPoint x="579.5" y="530" as="targetPoint" />
          </mxGeometry>
        </mxCell>
        <mxCell id="73YXVmJCN1HynkoazAPh-89" value="" style="endArrow=classic;html=1;" edge="1" parent="1">
          <mxGeometry width="50" height="50" relative="1" as="geometry">
            <mxPoint x="579.5" y="537" as="sourcePoint" />
            <mxPoint x="579.5" y="567" as="targetPoint" />
          </mxGeometry>
        </mxCell>
        <mxCell id="73YXVmJCN1HynkoazAPh-90" value="" style="endArrow=classic;html=1;" edge="1" parent="1">
          <mxGeometry width="50" height="50" relative="1" as="geometry">
            <mxPoint x="579.5" y="577" as="sourcePoint" />
            <mxPoint x="579.5" y="607" as="targetPoint" />
          </mxGeometry>
        </mxCell>
        <mxCell id="73YXVmJCN1HynkoazAPh-91" value="" style="endArrow=classic;html=1;" edge="1" parent="1">
          <mxGeometry width="50" height="50" relative="1" as="geometry">
            <mxPoint x="579.5" y="617" as="sourcePoint" />
            <mxPoint x="579.5" y="647" as="targetPoint" />
          </mxGeometry>
        </mxCell>
        <mxCell id="73YXVmJCN1HynkoazAPh-92" value="" style="endArrow=classic;html=1;" edge="1" parent="1">
          <mxGeometry width="50" height="50" relative="1" as="geometry">
            <mxPoint x="579.5" y="650" as="sourcePoint" />
            <mxPoint x="579.5" y="690" as="targetPoint" />
          </mxGeometry>
        </mxCell>
        <mxCell id="73YXVmJCN1HynkoazAPh-93" value="Amazon DynamoDB" style="outlineConnect=0;fontColor=#232F3E;gradientColor=none;strokeColor=#ffffff;fillColor=#232F3E;dashed=0;verticalLabelPosition=middle;verticalAlign=bottom;align=center;html=1;whiteSpace=wrap;fontSize=10;fontStyle=1;spacing=3;shape=mxgraph.aws4.productIcon;prIcon=mxgraph.aws4.dynamodb;" vertex="1" parent="1">
          <mxGeometry x="750" y="440" width="20" height="50" as="geometry" />
        </mxCell>
        <mxCell id="73YXVmJCN1HynkoazAPh-94" value="" style="endArrow=classic;html=1;exitX=1;exitY=0.5;exitDx=0;exitDy=0;" edge="1" parent="1" source="73YXVmJCN1HynkoazAPh-82" target="73YXVmJCN1HynkoazAPh-93">
          <mxGeometry width="50" height="50" relative="1" as="geometry">
            <mxPoint x="670" y="630" as="sourcePoint" />
            <mxPoint x="720" y="580" as="targetPoint" />
            <Array as="points">
              <mxPoint x="710" y="604" />
              <mxPoint x="710" y="465" />
            </Array>
          </mxGeometry>
        </mxCell>
        <mxCell id="73YXVmJCN1HynkoazAPh-95" value="" style="endArrow=classic;html=1;exitX=1;exitY=0.5;exitDx=0;exitDy=0;entryX=0.229;entryY=0.214;entryDx=0;entryDy=0;entryPerimeter=0;" edge="1" parent="1" source="73YXVmJCN1HynkoazAPh-80" target="73YXVmJCN1HynkoazAPh-5">
          <mxGeometry width="50" height="50" relative="1" as="geometry">
            <mxPoint x="670" y="570" as="sourcePoint" />
            <mxPoint x="720" y="520" as="targetPoint" />
          </mxGeometry>
        </mxCell>
        <mxCell id="73YXVmJCN1HynkoazAPh-96" value="" style="endArrow=classic;html=1;exitX=1;exitY=0.5;exitDx=0;exitDy=0;" edge="1" parent="1" source="73YXVmJCN1HynkoazAPh-81">
          <mxGeometry width="50" height="50" relative="1" as="geometry">
            <mxPoint x="660" y="600" as="sourcePoint" />
            <mxPoint x="730" y="570" as="targetPoint" />
          </mxGeometry>
        </mxCell>
        <mxCell id="73YXVmJCN1HynkoazAPh-97" value="" style="endArrow=classic;html=1;" edge="1" parent="1">
          <mxGeometry width="50" height="50" relative="1" as="geometry">
            <mxPoint x="755" y="579.5" as="sourcePoint" />
            <mxPoint x="785" y="579.5" as="targetPoint" />
          </mxGeometry>
        </mxCell>
        <mxCell id="73YXVmJCN1HynkoazAPh-98" value="File gateway" style="rounded=1;whiteSpace=wrap;html=1;" vertex="1" parent="1">
          <mxGeometry x="90" y="180" width="110" height="40" as="geometry" />
        </mxCell>
        <mxCell id="73YXVmJCN1HynkoazAPh-99" value="" style="outlineConnect=0;fontColor=#232F3E;gradientColor=none;fillColor=#277116;strokeColor=none;dashed=0;verticalLabelPosition=bottom;verticalAlign=top;align=center;html=1;fontSize=12;fontStyle=0;aspect=fixed;pointerEvents=1;shape=mxgraph.aws4.file_gateway;" vertex="1" parent="1">
          <mxGeometry x="180" y="188.69" width="20" height="22.61" as="geometry" />
        </mxCell>
        <mxCell id="73YXVmJCN1HynkoazAPh-101" value="" style="endArrow=classic;html=1;" edge="1" parent="1">
          <mxGeometry width="50" height="50" relative="1" as="geometry">
            <mxPoint x="40" y="188.69" as="sourcePoint" />
            <mxPoint x="90" y="188.69" as="targetPoint" />
          </mxGeometry>
        </mxCell>
        <mxCell id="73YXVmJCN1HynkoazAPh-102" value="" style="endArrow=classic;html=1;" edge="1" parent="1" source="73YXVmJCN1HynkoazAPh-103" target="73YXVmJCN1HynkoazAPh-6">
          <mxGeometry width="50" height="50" relative="1" as="geometry">
            <mxPoint x="210" y="250" as="sourcePoint" />
            <mxPoint x="260" y="200" as="targetPoint" />
            <Array as="points">
              <mxPoint x="310" y="200" />
            </Array>
          </mxGeometry>
        </mxCell>
        <mxCell id="73YXVmJCN1HynkoazAPh-103" value="https" style="text;html=1;strokeColor=none;fillColor=none;align=center;verticalAlign=middle;whiteSpace=wrap;rounded=0;" vertex="1" parent="1">
          <mxGeometry x="230" y="190" width="40" height="20" as="geometry" />
        </mxCell>
        <mxCell id="73YXVmJCN1HynkoazAPh-104" value="" style="endArrow=classic;html=1;" edge="1" parent="1" source="73YXVmJCN1HynkoazAPh-99" target="73YXVmJCN1HynkoazAPh-103">
          <mxGeometry width="50" height="50" relative="1" as="geometry">
            <mxPoint x="199.93778127563564" y="199.99541407421987" as="sourcePoint" />
            <mxPoint x="310" y="138.5" as="targetPoint" />
            <Array as="points" />
          </mxGeometry>
        </mxCell>
        <mxCell id="73YXVmJCN1HynkoazAPh-105" value="nfs/smb" style="text;html=1;strokeColor=none;fillColor=none;align=center;verticalAlign=middle;whiteSpace=wrap;rounded=0;" vertex="1" parent="1">
          <mxGeometry x="40" y="162" width="40" height="20" as="geometry" />
        </mxCell>
      </root>
    </mxGraphModel>
  </diagram>
</mxfile>
